<svg xmlns="http://www.w3.org/2000/svg" viewBox="0 0 100 100">
  <defs>
    <linearGradient id="a0" x1="0%" y1="0%" x2="100%" y2="100%"><stop offset="0%" stop-color="#F2B896"/><stop offset="100%" stop-color="#C85C30"/></linearGradient>
    <linearGradient id="a1" x1="0%" y1="0%" x2="100%" y2="100%"><stop offset="0%" stop-color="#E8956A"/><stop offset="100%" stop-color="#B84228"/></linearGradient>
    <linearGradient id="a2" x1="0%" y1="0%" x2="100%" y2="100%"><stop offset="0%" stop-color="#D97757"/><stop offset="100%" stop-color="#A84020"/></linearGradient>
    <linearGradient id="a3" x1="0%" y1="0%" x2="100%" y2="100%"><stop offset="0%" stop-color="#E08060"/><stop offset="100%" stop-color="#C06040"/></linearGradient>
    <linearGradient id="a4" x1="0%" y1="0%" x2="100%" y2="100%"><stop offset="0%" stop-color="#F0A880"/><stop offset="100%" stop-color="#D07050"/></linearGradient>
    <linearGradient id="a5" x1="0%" y1="0%" x2="100%" y2="100%"><stop offset="0%" stop-color="#C86848"/><stop offset="100%" stop-color="#D98060"/></linearGradient>
  </defs>
  <ellipse cx="50" cy="50" rx="11" ry="44" fill="url(#a0)" transform="rotate(0,50,50)"/>
  <ellipse cx="50" cy="50" rx="11" ry="44" fill="url(#a1)" transform="rotate(60,50,50)"/>
  <ellipse cx="50" cy="50" rx="11" ry="44" fill="url(#a2)" transform="rotate(120,50,50)"/>
  <ellipse cx="50" cy="50" rx="11" ry="44" fill="url(#a3)" transform="rotate(180,50,50)"/>
  <ellipse cx="50" cy="50" rx="11" ry="44" fill="url(#a4)" transform="rotate(240,50,50)"/>
  <ellipse cx="50" cy="50" rx="11" ry="44" fill="url(#a5)" transform="rotate(300,50,50)"/>
</svg>
